<svg width="190" height="143" fill="none" xmlns="http://www.w3.org/2000/svg"><g filter="url(#filter0_d)"><path d="M144.551 99.817c-3.496 5.013-5.244 7.52-7.516 9.333a19.996 19.996 0 01-6.78 3.538c-2.786.827-5.842.827-11.954.827H46.373c-11.202 0-16.802 0-21.08-2.18a20.003 20.003 0 01-8.74-8.74c-2.18-4.279-2.18-9.88-2.18-21.08v-44c0-11.201 0-16.802 2.18-21.08a20 20 0 018.74-8.74c4.278-2.18 9.878-2.18 21.08-2.18h73.6c5.876 0 8.814 0 11.51.77a20.006 20.006 0 016.604 3.308c2.232 1.697 3.992 4.05 7.511 8.755l15.012 20.07c4.978 6.655 7.467 9.982 8.468 13.646.885 3.235.942 6.64.165 9.903-.878 3.695-3.255 7.103-8.008 13.92l-16.684 23.93z" fill="#fff"/></g><defs><filter id="filter0_d" x=".372" y=".515" width="189.414" height="142" filterUnits="userSpaceOnUse" color-interpolation-filters="sRGB"><feFlood flood-opacity="0" result="BackgroundImageFix"/><feColorMatrix in="SourceAlpha" values="0 0 0 0 0 0 0 0 0 0 0 0 0 0 0 0 0 0 127 0"/><feOffset dx="3" dy="12"/><feGaussianBlur stdDeviation="8.5"/><feColorMatrix values="0 0 0 0 0.670588 0 0 0 0 0.654902 0 0 0 0 0.584314 0 0 0 0.12 0"/><feBlend in2="BackgroundImageFix" result="effect1_dropShadow"/><feBlend in="SourceGraphic" in2="effect1_dropShadow" result="shape"/></filter></defs></svg>