<svg width="150" height="109" fill="none" xmlns="http://www.w3.org/2000/svg"><circle cx="76.385" cy="54.5" r="52.5" stroke="#333" stroke-width="4"/><path stroke="#333" stroke-width="4" d="M76.912 2.209V109M24.095 53.973h106.79M76.385 2.21c12.61 0 22.831 23.41 22.831 52.29s-10.222 52.29-22.83 52.29"/><path d="M117.628 20.622c0 4.067-18.465 7.364-41.243 7.364-22.778 0-41.243-3.297-41.243-7.364" stroke="#333" stroke-width="4"/><path d="M76.385 106.791c-12.61 0-22.831-23.412-22.831-52.291 0-28.88 10.222-52.29 22.831-52.29" stroke="#333" stroke-width="4"/><path d="M14.889 47.135C6.76 51.227 2 56.19 2 61.54c0 14.009 32.644 25.365 72.912 25.365 40.268 0 72.912-11.356 72.912-25.365 0-4.292-5.892-11.036-12.888-13.523" stroke="#333" stroke-width="4"/></svg>