<svg width="132" height="131" fill="none" xmlns="http://www.w3.org/2000/svg"><path d="M105.653 103.708v3.639c0 3.093-2.362 5.459-5.45 5.459H42.078c-3.088 0-5.45-2.366-5.45-5.459v-3.639h12.897c.727 0 2.725-1.637 2.543-2.547l-1.271-3.82c-.908-2.73-2.361-2.73-3.815-2.73H36.63V36.39c0-3.093 2.724-5.095 5.812-5.458 0 0 11.444-1.82 28.7-1.82s28.7 1.82 28.7 1.82c3.087.545 5.812 2.365 5.812 5.458v58.22H95.299c-1.453 0-2.906 0-3.814 2.547l-1.272 3.821c-.182.91 1.817 2.547 2.543 2.547h12.897v.182z" stroke="#333" stroke-width="4" stroke-miterlimit="10" stroke-linecap="round" stroke-linejoin="round"/><path d="M45.709 83.695h7.266l5.449 9.097h25.43c-.182 0 5.449-9.097 5.449-9.097h7.266" stroke="#333" stroke-width="4" stroke-miterlimit="10" stroke-linecap="square" stroke-linejoin="round"/><path d="M62.056 83.695h18.165M45.709 41.847v16.375c0 3.093 1.998 4.913 5.45 5.459 0 0 10.171 1.819 19.98 1.819 9.809 0 19.98-1.82 19.98-1.82 3.088-.545 5.45-2.365 5.45-5.458V41.847h-50.86zM36.627 65.5l-13.442-6.732c-.726-.364-1.09-.91-1.09-1.637V43.667c0-1.092.727-1.82 1.817-1.82h5.449m76.29 23.653l13.441-6.732c.545-.364 1.09-.91 1.09-1.637V43.667c0-1.092-.726-1.82-1.816-1.82h-5.449M40.26 112.806v4.548c0 1.456 1.271 2.729 2.724 2.729h10.899c1.453 0 2.724-1.273 2.724-2.729v-4.548m29.065 0v4.548c0 1.456 1.271 2.729 2.724 2.729h10.899c1.453 0 2.724-1.273 2.724-2.729v-4.548" stroke="#333" stroke-width="4" stroke-miterlimit="10" stroke-linecap="round" stroke-linejoin="round"/><path d="M105.651 21.833V10.917H36.627L7.565 41.847v52.504h14.53" stroke="#333" stroke-width="4" stroke-miterlimit="10" stroke-linecap="square" stroke-linejoin="round"/><path d="M14.83 103.448v4.549c0 1.456 1.272 2.729 2.725 2.729h7.266c1.453 0 2.725-1.273 2.725-2.729v-4.549m-.003 0H11.195v-9.097" stroke="#333" stroke-width="4" stroke-miterlimit="10" stroke-linecap="round" stroke-linejoin="round"/><path d="M36.629 12.736v9.097" stroke="#333" stroke-width="4" stroke-miterlimit="10" stroke-linecap="square" stroke-linejoin="round"/></svg>