<svg width="131" height="131" fill="none" xmlns="http://www.w3.org/2000/svg"><path d="M9.097 121.903V100.07h112.806v21.833" stroke="#333" stroke-width="4" stroke-miterlimit="10" stroke-linecap="square" stroke-linejoin="round"/><path d="M25.472 121.903v-9.097h30.93v9.097m16.376 0v-9.097h32.75v9.097m-85.514-9.097h5.458m41.848 0h5.458m43.666 0h5.459m-7.278-12.736V54.583H65.5v45.487" stroke="#333" stroke-width="4" stroke-miterlimit="10" stroke-linecap="square" stroke-linejoin="round"/><path d="M96.43 54.583v9.098H83.695v-9.098" stroke="#333" stroke-width="4" stroke-miterlimit="10" stroke-linecap="round" stroke-linejoin="round"/><path d="M103.708 89.153H96.43m-21.833-34.57V9.097H25.472v34.57" stroke="#333" stroke-width="4" stroke-miterlimit="10" stroke-linecap="square" stroke-linejoin="round"/><path d="M56.403 9.097v9.098H43.667V9.097" stroke="#333" stroke-width="4" stroke-miterlimit="10" stroke-linecap="round" stroke-linejoin="round"/><path d="M63.68 43.667h-7.277M65.5 100.07V54.583H16.375v34.57" stroke="#333" stroke-width="4" stroke-miterlimit="10" stroke-linecap="square" stroke-linejoin="round"/><path d="M47.306 54.583v9.098H34.57v-9.098" stroke="#333" stroke-width="4" stroke-miterlimit="10" stroke-linecap="round" stroke-linejoin="round"/><path d="M54.583 89.153h-7.277" stroke="#333" stroke-width="4" stroke-miterlimit="10" stroke-linecap="square" stroke-linejoin="round"/></svg>