<svg width="174" height="25" fill="none" xmlns="http://www.w3.org/2000/svg"><g clip-path="url(#clip0)" fill="#fff"><path d="M164.898 24.982h-8.037l9.102-12.588L157.249.097h7.94L174 12.104l-9.102 12.878zm-135.075 0H0l9.102-12.588L.387 0h29.727l8.81 12.007-9.101 12.975zm30.791 0L56.257 18.3l-4.164 6.68h-9.586l9.006-12.587L42.895 0h9.392l4.26 6.294L60.712 0h9.005l-8.714 12.104L70.2 24.982h-9.586zM86.178 6.39v4.261h10.457v6.39H86.178v8.037h-8.424V0h20.334v6.39h-11.91zM107.189 0h8.424v24.982h-8.424V0zm43.474 0v24.982h-6.972l-9.489-11.33v11.33h-8.23V0h6.971l9.49 11.329V0h8.23z"/></g><defs><clipPath id="clip0"><path fill="#fff" d="M0 0h174v24.982H0z"/></clipPath></defs></svg>