<svg width="169" height="27" fill="none" xmlns="http://www.w3.org/2000/svg"><path d="M64.812 26.668l-4.659-7.133-4.555 7.133h-10.25l9.629-13.438L45.659 0h10.146l4.556 6.719L64.811 0h9.733l-9.319 12.92 9.836 13.85h-10.25v-.102zM105.604 1.24c1.864.827 3.21 1.964 4.245 3.515 1.036 1.55 1.45 3.307 1.45 5.375 0 2.067-.518 3.824-1.45 5.374-1.035 1.55-2.381 2.688-4.245 3.515-1.863.827-4.037 1.24-6.419 1.24h-3.83v6.615h-9.008V0h12.838c2.382 0 4.556.413 6.419 1.24zm-4.348 11.163c.621-.516.932-1.343.932-2.274 0-.93-.311-1.757-.932-2.273-.621-.517-1.553-.827-2.796-.827h-3.313v6.305h3.313c1.347-.104 2.278-.414 2.796-.93zM121.857 0h9.008v19.742h14.184l-5.073 7.029h-18.119V0zm36.86 26.668h-8.593l9.732-13.438L150.538.103h8.49l9.421 12.817-9.732 13.748zm-126.829 0H0L9.732 13.23.414.103H32.2l9.42 12.817-9.732 13.748z" fill="#fff"/></svg>