<svg width="253" height="131" fill="none" xmlns="http://www.w3.org/2000/svg"><path d="M141.567 55.142h-8.951V49.48h24.316v5.663h-8.802V81.82h-6.414c-.149 0-.149-26.677-.149-26.677zm32.669 16.543l-6.265-10.73V81.67h-6.266V49.33h6.266l8.204 14.307 8.205-14.307h6.116v32.34h-6.265V60.955l-6.266 10.73h-3.729zm21.928 7.899l9.697-14.755-8.802-13.413v-2.235h6.564l6.265 10.432 6.564-10.432h6.265v2.235l-8.801 13.264 9.696 14.755v2.235h-6.563l-7.31-11.624-7.309 11.624h-6.266v-2.086zm-82.045-16.692v-.596c0-.745-.15-1.49-.15-2.087v-.596c0-.745-.149-1.341-.298-2.086 0-.15 0-.298-.149-.596-.149-.746-.149-1.342-.298-2.087v-.149H96.218v.447c.298.894.596 2.087.895 3.13 0 .149.149.596.149.745 0 .15 0 .298.15.745 0 .298.148.596.148.894v.596c0 .299.15.746.15 1.044v.298c0 .298 0 .894.149 1.341v1.789c0 17.883-14.47 32.34-32.371 32.34-6.564 0-12.68-2.087-17.901-5.365h17.9c14.918 0 27.001-12.072 27.001-26.975 0-3.875-.746-7.601-2.237-10.88H77.57c2.536 2.98 4.028 6.557 4.028 10.88 0 8.941-7.16 16.244-16.26 16.244h-45.2c6.563 18.629 24.464 32.191 45.647 32.191 26.852 0 48.631-21.759 48.631-48.585-.149-.894-.149-1.788-.298-2.682z" fill="#454545"/><path d="M65.786 16.99c-21.78 0-40.128 14.307-46.393 33.98a46.276 46.276 0 00-2.238 14.306c0 3.726.298 7.303 1.343 10.88h16.707c-1.044-3.279-1.79-7.005-1.79-10.73 0-2.236.15-4.471.746-6.558a32.18 32.18 0 0131.625-25.783c6.564 0 12.68 2.087 17.9 5.365h-17.9c-14.918 0-27 12.072-27 26.975 0 3.875.745 7.601 2.237 10.88h12.68c-2.536-2.98-4.028-6.558-4.028-10.88 0-8.941 7.16-16.244 16.26-16.244h45.498C104.72 30.403 86.819 16.99 65.786 16.99z" fill="#454545"/></svg>