<svg width="212" height="42" fill="none" xmlns="http://www.w3.org/2000/svg"><g clip-path="url(#clip0)" fill="#454545"><path d="M.812 41.63v-5.25c0-.074.074-.222.148-.296.074-.074.148-.147.296-.147h.813c.074 0 .222.074.296.148.074.073.148.147.148.295v1.997H3.4c.221 0 .443-.074.665-.222.222-.148.37-.37.517-.666l.592-1.183c.147-.295.37-.443.591-.443h.96c.075 0 .149.074.223.148v.073c0 .074 0 .148-.074.222l-.887 1.701c-.148.222-.296.444-.444.592a1.43 1.43 0 01-.665.37c.222.073.37.147.591.369.222.222.37.444.518.666l1.035 1.7c.074.074.074.148.074.222V42c0 .074-.074.148-.222.148h-.961c-.074 0-.222-.074-.37-.148a.577.577 0 01-.295-.296l-.74-1.183c-.147-.296-.37-.517-.517-.665-.148-.148-.37-.222-.665-.222h-.887v2.07c0 .074-.074.222-.148.296-.074.074-.148.148-.296.148h-.74c-.073 0-.22-.074-.295-.148-.074-.222-.148-.296-.148-.37zm10.497-.222c-.591-.517-.887-1.33-.887-2.44 0-1.109.295-1.922.887-2.44.591-.517 1.404-.74 2.513-.74s1.996.223 2.513.74c.592.518.887 1.331.887 2.44 0 1.11-.295 1.923-.887 2.44-.591.518-1.404.74-2.513.74-1.035 0-1.922-.222-2.513-.74zm1.183-3.919c-.296.37-.444.814-.444 1.553 0 .666.148 1.183.444 1.553.295.37.739.518 1.404.518.665 0 1.109-.148 1.404-.518.296-.37.444-.813.444-1.553 0-.665-.148-1.183-.444-1.553-.295-.37-.739-.517-1.404-.517-.665 0-1.109.148-1.404.517zm9.018 4.141v-5.25c0-.148.074-.222.148-.296.073-.074.147-.147.295-.147h1.7c.148 0 .222.074.296.148.074.073.148.147.222.295l1.256 3.623 1.257-3.623c0-.074.074-.222.222-.296a.559.559 0 01.296-.147h1.774c.147 0 .221.074.295.148.074.073.148.147.148.295v5.25c0 .148-.074.222-.148.296-.074.074-.148.148-.295.148h-.814c-.147 0-.221-.074-.295-.148-.074-.074-.148-.148-.148-.296v-4.14l-1.478 4.14c-.074.074-.074.222-.222.296-.074.074-.222.148-.296.148h-.591c-.074 0-.222-.074-.296-.148a1.022 1.022 0 01-.222-.296l-1.478-4.14v4.14c0 .148-.074.222-.148.296-.074.074-.148.148-.296.148h-.813c-.148 0-.221-.074-.295-.148-.074-.074-.074-.222-.074-.296zm12.344 0v-5.25c0-.074.074-.222.148-.296.074-.074.148-.147.296-.147h5.47c.074 0 .221.074.295.148.074.073.148.147.148.295v5.25c0 .074-.074.222-.148.296-.074.074-.147.148-.295.148h-.813c-.074 0-.222-.074-.296-.148-.074-.074-.148-.148-.148-.296v-4.51h-3.105v4.51a.559.559 0 01-.147.296c-.074.074-.148.148-.296.148h-.813c-.074 0-.222-.074-.296-.148v-.296zm10.349 0l1.109-4.067c.295-1.109 1.256-1.626 2.809-1.626h2.143c.074 0 .148.074.222.148.074.073.074.147.074.295v5.25c0 .074-.074.222-.148.296-.074.074-.148.148-.296.148h-.813c-.074 0-.221-.074-.295-.148-.074-.074-.148-.148-.148-.296v-4.51h-1.035a1.25 1.25 0 00-.74.222 1.15 1.15 0 00-.443.591l-.813 3.697c0 .148-.074.222-.222.296-.074.074-.221.148-.295.148h-.887c-.074 0-.148 0-.222-.074-.074-.074-.074-.074-.074-.148.074-.148.074-.148.074-.222zm10.866 0v-5.25c0-.074.074-.222.148-.296.074-.074.148-.147.296-.147h4.878c.074 0 .222.074.296.148.074.073.148.147.148.295v.37c0 .074-.074.222-.148.296-.074.074-.148.148-.296.148h-3.696v1.257h3.179c.074 0 .221.074.295.148.074.074.148.147.148.295v.296c0 .074-.074.222-.148.296-.073.074-.147.148-.295.148h-3.179v1.257h3.696c.074 0 .222.074.296.148.074.074.148.148.148.295v.444c0 .074-.074.222-.148.296-.074.074-.148.148-.296.148h-4.878c-.074 0-.222-.074-.296-.148-.074-.222-.148-.37-.148-.444zm9.831 0v-5.25c0-.074.074-.222.148-.296.074-.074.148-.147.296-.147h.813c.074 0 .222.074.296.148.073.073.147.147.147.295v1.997h.887c.222 0 .444-.074.666-.222.221-.148.37-.37.517-.666l.665-1.183c.148-.295.37-.443.592-.443h.96c.075 0 .148.074.222.148v.073c0 .074 0 .148-.073.222l-.888 1.701c-.147.222-.295.444-.443.592a1.43 1.43 0 01-.665.37c.221.073.37.147.591.369.222.222.37.444.517.666l1.035 1.7c.074.074.074.148.074.222V42c0 .074-.074.148-.222.148h-.96c-.074 0-.222-.074-.37-.148a.578.578 0 01-.296-.296l-.739-1.183c-.148-.296-.37-.517-.517-.665-.148-.148-.37-.222-.666-.222h-.96v2.07c0 .074-.074.222-.148.296-.074.074-.148.148-.296.148h-.813c-.074 0-.222-.074-.296-.148 0-.222-.074-.296-.074-.37zm10.423-.296c-.518-.517-.813-1.257-.813-2.292s.295-1.848.813-2.292c.517-.518 1.33-.74 2.365-.74h.961c.665 0 1.183.148 1.7.518.518.37.74.814.74 1.405a.565.565 0 01-.148.37c-.074.074-.222.074-.296.074h-.517c-.296 0-.444-.148-.592-.444-.222-.444-.591-.665-1.035-.665h-.739c-.591 0-1.035.148-1.257.37-.221.295-.295.739-.295 1.478 0 .74.074 1.183.296 1.479.221.296.665.37 1.256.37h.813c.518 0 .813-.222 1.035-.666.148-.295.37-.443.591-.443h.666c.074 0 .148.073.148.148.073.073.073.147.073.295 0 .592-.221 1.035-.739 1.405-.517.37-1.035.518-1.7.518h-1.035c-.96-.148-1.774-.444-2.291-.888zm9.979.296v-5.25c0-.074.074-.222.148-.296.074-.074.148-.147.295-.147h.813c.074 0 .222.074.296.148.074.073.148.147.148.295v1.923h2.883V36.38c0-.074.074-.222.148-.296.074-.074.148-.147.295-.147h.813c.148 0 .222.074.296.148.074.073.148.147.148.295v5.25c0 .074-.074.222-.148.296-.074.074-.148.148-.296.148h-.813c-.074 0-.221-.074-.295-.148-.074-.074-.148-.148-.148-.296v-2.144h-2.883v2.144c0 .074-.074.222-.148.296-.074.074-.148.148-.296.148h-.813c-.074 0-.221-.074-.295-.148-.074-.074-.148-.222-.148-.296zm10.2 0l1.036-4.067c.295-1.109 1.256-1.626 2.809-1.626h2.291c.074 0 .222.074.296.148.074.073.074.147.074.295v5.324c0 .074-.074.222-.148.296-.074.074-.148.148-.296.148h-.813c-.148 0-.222-.074-.296-.148-.074-.074-.148-.148-.148-.296V40.67h-3.03l-.296 1.035c0 .148-.074.222-.222.296-.073.074-.221.148-.295.148h-.813c-.074 0-.222-.074-.222-.148-.074-.074-.074-.074-.074-.148.148-.148.148-.222.148-.222zm2.292-2.292h2.661V37.12h-1.182a1.25 1.25 0 00-.74.222 1.15 1.15 0 00-.443.591l-.296 1.405zm8.501 2.514v-.074c0-.074 0-.148.074-.148l1.183-1.922c-.814-.37-1.183-.962-1.183-1.775 0-.591.222-1.11.665-1.479.444-.37.961-.517 1.626-.517h3.327c.074 0 .221.074.295.148.074.073.148.147.148.295v5.324c0 .074-.074.222-.148.296-.074.074-.147.148-.295.148h-.813c-.148 0-.222-.074-.296-.148-.074-.074-.148-.148-.148-.296V39.93h-1.478l-1.035 1.775a.61.61 0 01-.592.37h-1.182c-.074-.074-.148-.074-.148-.222zm1.626-3.993c0 .518.222.74.739.74h2.07v-1.48h-2.07c-.517 0-.739.297-.739.74zm14.784 3.771l1.109-4.067c.295-1.109 1.256-1.626 2.809-1.626h2.143c.074 0 .148.074.222.148.074.073.074.147.074.295v5.25c0 .074-.074.222-.148.296-.074.074-.148.148-.295.148h-.74c-.074 0-.221-.074-.295-.148-.074-.074-.148-.148-.148-.296v-4.51h-1.035c-.296 0-.517.074-.739.222a1.15 1.15 0 00-.444.591l-.961 3.623c0 .148-.074.222-.221.296-.074.074-.222.148-.296.148h-.887c-.074 0-.148 0-.222-.074-.074-.074-.074-.074-.074-.148.148-.074.148-.074.148-.148zm11.457-.222c-.591-.517-.887-1.33-.887-2.44 0-1.109.296-1.922.887-2.44.592-.517 1.405-.74 2.514-.74 1.108 0 1.996.223 2.513.74.591.518.887 1.331.887 2.44 0 1.11-.296 1.923-.887 2.44-.591.518-1.405.74-2.513.74-1.109 0-1.922-.222-2.514-.74zm1.183-3.919c-.296.37-.443.814-.443 1.553 0 .666.147 1.183.443 1.553.296.37.739.518 1.405.518.665 0 1.108-.148 1.404-.518.296-.37.444-.813.444-1.553 0-.665-.148-1.183-.444-1.553-.296-.37-.739-.517-1.404-.517-.666 0-1.109.148-1.405.517zm9.018 4.141v-5.324c0-.148.074-.221.148-.295.074-.074.148-.148.296-.148h4.065c.148 0 .222.074.296.148.074.073.148.147.148.295v.37c0 .148-.074.222-.148.296-.074.074-.148.148-.296.148h-2.882v4.51c0 .074-.074.222-.148.296-.074.074-.148.148-.296.148h-.813c-.074 0-.222-.074-.296-.148-.074-.074-.074-.222-.074-.296zm8.871 0v-5.25c0-.148.073-.222.147-.296.074-.074.148-.147.296-.147h.739c.148 0 .222.074.296.148.074.073.148.147.148.295v4.215l2.439-4.215c.074-.074.148-.222.296-.296.148-.074.222-.147.295-.147h1.257c.148 0 .222.074.296.148.074.073.148.147.148.295v5.25c0 .074-.074.222-.148.296-.074.074-.148.148-.296.148h-.739c-.148 0-.222-.074-.296-.148-.074-.074-.148-.148-.148-.296v-3.919l-2.217 3.92c-.074.073-.148.221-.296.295-.148.074-.222.148-.369.148h-1.405c-.148 0-.222-.074-.296-.148a.558.558 0 01-.147-.296zm11.235-.296c-.517-.517-.813-1.257-.813-2.292s.296-1.848.813-2.292c.518-.518 1.331-.74 2.366-.74h.961c.665 0 1.182.148 1.7.518.517.37.739.814.739 1.405a.565.565 0 01-.148.37c-.074.074-.222.074-.296.074h-.517c-.296 0-.443-.148-.591-.444-.222-.444-.592-.665-1.035-.665h-.739c-.592 0-1.035.148-1.257.37-.222.295-.296.739-.296 1.478 0 .74.074 1.183.296 1.479.222.296.665.37 1.257.37h.813c.517 0 .813-.222 1.035-.666.147-.295.369-.443.591-.443h.665a.16.16 0 01.148.148c.074.073.074.147.074.295 0 .592-.222 1.035-.739 1.405-.518.37-1.035.518-1.7.518h-1.035c-1.035-.148-1.774-.444-2.292-.888zm9.314-4.584v-.37c0-.148.074-.222.148-.296.074-.074.148-.147.296-.147h5.396c.148 0 .221.074.295.148.074.073.148.147.148.295v.37c0 .148-.074.222-.148.296-.074.074-.147.148-.295.148h-1.922v4.51c0 .074-.074.222-.148.296-.074.074-.148.148-.296.148h-.813c-.074 0-.222-.074-.295-.148-.074-.074-.148-.148-.148-.296v-4.51h-1.922c-.148 0-.222-.074-.296-.148v-.296zm10.201 4.88v-5.25c0-.148.074-.222.148-.296.074-.074.148-.147.295-.147h.74c.147 0 .221.074.295.148.074.073.148.147.148.295v4.215l2.439-4.215c.074-.074.148-.222.296-.296.148-.074.222-.147.296-.147h1.256c.148 0 .222.074.296.148.074.073.148.147.148.295v5.25c0 .074-.074.222-.148.296-.074.074-.148.148-.296.148h-.739c-.148 0-.221-.074-.295-.148-.074-.074-.148-.148-.148-.296v-3.919l-2.218 3.92c-.074.073-.148.221-.295.295-.148.074-.222.148-.37.148h-1.405c-.147 0-.221-.074-.295-.148-.148-.074-.148-.222-.148-.296zm10.718 0v-5.25c0-.074.074-.222.148-.296.074-.074.148-.147.296-.147h.813c.074 0 .222.074.296.148.073.073.147.147.147.295v1.997h.887c.222 0 .444-.074.666-.222.221-.148.369-.37.517-.666l.665-1.183c.148-.295.37-.443.592-.443h.961c.074 0 .147.074.221.148v.073c0 .074 0 .148-.074.222l-.887 1.701c-.147.222-.295.444-.443.592a1.45 1.45 0 01-.665.37 1.3 1.3 0 01.591.369c.222.222.37.444.517.666l1.035 1.7c.074.074.074.148.074.222V42c0 .074-.074.148-.222.148h-.96c-.074 0-.222-.074-.37-.148a.578.578 0 01-.296-.296l-.739-1.183c-.148-.296-.37-.517-.517-.665-.148-.148-.37-.222-.666-.222h-.887v2.07c0 .074-.074.222-.147.296-.074.074-.148.148-.296.148h-.813c-.074 0-.222-.074-.296-.148-.074-.222-.148-.296-.148-.37zm9.758 0l1.034-4.067c.296-1.109 1.257-1.626 2.809-1.626h2.292c.074 0 .222.074.295.148.074.073.074.147.074.295v5.324a.559.559 0 01-.147.296c-.074.074-.148.148-.296.148h-.813c-.148 0-.222-.074-.296-.148-.074-.074-.148-.148-.148-.296V40.67h-3.03l-.296 1.035c0 .148-.074.222-.222.296-.074.074-.222.148-.296.148h-.665c-.074 0-.222-.074-.222-.148-.073-.074-.073-.074-.073-.148v-.222zm2.217-2.292h2.661V37.12h-1.183a1.25 1.25 0 00-.739.222c-.221.147-.369.37-.443.591l-.296 1.405zM29.419 19.003l-4.879 8.504H7.021c-5.618 0-6.948-1.33-6.948-6.95V6.95C.073 1.33 1.403 0 7.02 0h22.4l-4.88 8.504H9.165v10.5h20.254zM49.673 0h-.814c-2.439.148-4.435.961-6.283 4.067L29.05 27.507h20.476l4.878-8.504h-10.2l6.061-10.5h4.213v19.004h9.092V0H49.673zM205.05 0h-17.002c-5.618 0-6.948 1.331-6.948 6.95v20.557h9.092V8.504h12.64v5.62h-8.649l-4.065 8.355h14.858c5.618 0 6.948-1.331 6.948-6.95V6.95c.074-5.62-1.33-6.951-6.874-6.951zm-41.839 2.958l-9.905 11.461V0h-2.143c-5.618 0-6.949 1.331-6.949 6.95v20.557h9.092l12.419-13.901v13.901h9.092V0h-4.805c-3.253 0-5.027.961-6.801 2.958zM124.183 0h-.813c-2.439.148-4.435.961-6.283 4.067l-13.527 23.44h20.475l4.879-8.504h-10.201l5.988-10.5h4.213v19.004h9.092V0h-13.823zM86.928 0h-.813c-2.44.148-4.435.961-6.283 4.067l-13.528 23.44H76.58L87.445 8.504h4.214v19.003h9.092V0H86.928z"/></g><defs><clipPath id="clip0"><path fill="#fff" d="M0 0h212v42H0z"/></clipPath></defs></svg>