<svg width="237" height="93" fill="none" xmlns="http://www.w3.org/2000/svg"><path d="M45.773 27.064c-1.743-3.27-3.814-6.375-5.994-9.318V36.22c.364.527 1.017 1.072 1.526 1.617 1.18-3.724 2.652-7.32 4.468-10.772zM39.78 38.035v5.577c.18-1.471.69-2.925 1.126-4.36-.382-.417-.945-.817-1.127-1.217zm24.811-10.353a50.923 50.923 0 0113.878-5.268 40.161 40.161 0 00-4.033-4.577c-3.778 2.87-7.084 6.176-9.845 9.845zm-46.027-9.827a40.701 40.701 0 00-4.05 4.596 51.84 51.84 0 0113.913 5.304 48.97 48.97 0 00-9.863-9.9zm27.119 27.9c-1.181-1.87-2.416-3.65-3.833-5.34-1.09 3.905-1.89 7.938-2.07 12.007v7.774c.363-1.871.962-3.706 1.634-5.522 1.144-3.088 2.543-6.085 4.269-8.919zm.763-1.18a51.899 51.899 0 013.614-4.868c.2-.236.4-.473.6-.69a63.487 63.487 0 00-4.196-10.518A63.137 63.137 0 0042.23 39c.146.163.291.326.418.49a50.01 50.01 0 013.797 5.086zm38.798-8.138a39.851 39.851 0 00-5.922-12.842 49.447 49.447 0 00-16.438 6.684c-4.287 6.576-6.92 14.132-7.647 22.179v9.554c1.271-5.213 4.123-10.026 7.828-14.095 5.813-6.43 13.605-10.48 22.179-11.48zm-77.778 1.29a39.837 39.837 0 00-.963 8.773c0 19.163 13.478 35.166 31.46 39.09V68.623C36.328 52.44 23.777 39.598 7.466 37.727zM60.069 8.773c-1.563-.563-3.397-1.017-4.85-1.38v6.266c1.271-1.707 3.142-3.324 4.85-4.886zm13.405 8.156c-3.542-3.233-7.575-5.83-12.116-7.647-2.234 1.998-4.323 4.105-6.14 6.357v18.873c1.999-1.926 4.324-3.67 6.74-5.213 3.124-4.705 6.993-8.919 11.516-12.37zM60.286 32.023c-1.816 1.308-3.614 2.743-5.067 4.287v8.428a48.027 48.027 0 014.069-10.807c.327-.636.635-1.272.998-1.908z" fill="#454545"/><path d="M85.644 37.727c-16.366 1.834-28.972 14.785-30.425 31.06v16.82C73.019 81.684 86.66 65.681 86.66 46.5c0-3.015-.382-5.958-1.017-8.773zM13.677 23.595a39.649 39.649 0 00-5.921 12.842c8.519 1.017 16.366 5.05 22.196 11.407 3.742 4.087 6.558 8.919 8.01 14.132v-8.428c-.544-8.483-3.323-16.439-7.755-23.287a50.678 50.678 0 00-16.53-6.666zM53.22 44.139v-6.104c-.18.418-.798.854-1.198 1.29.472 1.58 1.017 3.179 1.199 4.814zm-6.048 1.671c2.797 4.559 4.959 9.518 6.049 14.694v-5.54a63.117 63.117 0 00-2.216-14.44c-1.4 1.671-2.653 3.451-3.833 5.286zM39.78 7.066v8.555c2.36 3.124 4.74 6.485 6.702 10.045 1.962-3.524 4.377-6.866 6.739-10.009V7.066a38.499 38.499 0 00-6.703-.581c-2.343 0-4.74.2-6.739.58z" fill="#454545"/><path d="M46.5 0C20.816 0 0 20.816 0 46.5S20.816 93 46.5 93 93 72.184 93 46.5 72.184 0 46.5 0zm0 88.477c-23.195 0-41.977-18.782-41.977-41.977 0-23.177 18.782-41.977 41.977-41.977 23.177 0 41.977 18.8 41.977 41.977 0 23.195-18.8 41.977-41.977 41.977z" fill="#454545"/><path d="M48.589 29.843c1.217 2.616 2.198 5.286 3.051 7.993.527-.581 1.217-1.145 1.58-1.69v-18.4c-2.18 2.943-4.304 6.049-6.066 9.3.49.927.999 1.853 1.435 2.797zM31.75 9.3a39.926 39.926 0 00-12.206 7.647A50.49 50.49 0 0131.17 29.39c2.398 1.544 4.632 3.288 6.812 5.213v-18.98c-2.016-2.235-4.014-4.342-6.23-6.322zm8.03 59.233v17.401c1.997.382 4.395.581 6.738.581 2.325 0 4.523-.2 6.703-.58V69.077c-.364-7.974-2.834-15.476-6.74-22.051a48.911 48.911 0 00-6.702 21.506zm-6.067-34.766c1.87 3.596 3.16 7.375 4.25 11.298v-8.737a51.44 51.44 0 00-5.195-4.305c.327.563.636 1.145.945 1.744zm4.25-20.144v-6.23a39.446 39.446 0 00-4.814 1.38c1.708 1.544 3.36 3.16 4.814 4.85z" fill="#454545"/><g clip-path="url(#clip0)" fill="#454545"><path d="M117.859 35.25h8.531c5.433 0 8.673-3.074 8.673-7.673.024-4.503-3.24-7.577-8.673-7.577H115v27.164h2.859V35.25zm0-12.629h8.34c3.837 0 6.053 1.811 6.053 5.028 0 3.145-2.216 4.98-6.053 4.98h-8.34V22.62zm31.358 22.184c1.906-1.906 2.836-4.218 2.836-7.053 0-2.788-.93-5.123-2.836-6.982-1.906-1.906-4.313-2.835-7.148-2.835-2.145 0-3.956.429-5.624 1.31v2.598c1.907-.93 3.503-1.406 5.29-1.406 3.908 0 6.91 2.406 7.506 5.98h-8.983V38.8h8.959c-.19 1.907-.977 3.384-2.359 4.504-1.406 1.12-3.074 1.715-5.051 1.715-2.121 0-3.932-.524-5.6-1.644v2.598c1.668 1.048 3.693 1.596 5.957 1.596 2.812.024 5.171-.905 7.053-2.764zm-2.764 10.461l-.167 6.004c-.119 3.074-.31 5.1-.93 7.149-.571 2.025-1.668 3.097-3.335 3.097a2.99 2.99 0 01-.715-.071l-10.985-24.757h-2.669L115.571 74.09h2.979l3.288-7.625h14.225l3.384 7.625h1.859c.19 0 .476.024.81.024 2.955.143 4.765-1.883 5.623-4.123.667-1.5.977-3.884 1.12-5.575.072-.858.119-1.811.143-2.979l.119-3.55h7.101l1.43 16.203h2.788l-1.43-18.824h-12.557zm-23.638 8.816l6.172-13.677 6.147 13.677h-12.319zm50.469-2.382h-6.577v-6.434h-2.859V74.09h9.555c4.456 0 7.005-2.526 7.005-6.22 0-3.764-2.74-6.17-7.124-6.17zm-.405 10.007h-6.172v-7.625h6.172c2.954 0 4.694 1.382 4.694 3.836 0 2.36-1.74 3.789-4.694 3.789zm9.031-10.699c0 2.979 1.668 5.076 4.741 5.576l-5.575 7.506h3.169l5.242-6.91h6.052v6.91h2.86V55.266h-9.77c-4.337 0-6.719 2.359-6.719 5.742zm13.629-3.121v6.672h-6.481c-2.74 0-4.265-1.096-4.265-3.313 0-2.215 1.501-3.36 4.265-3.36h6.481zm20.492 5.242h-11.437v-7.863h-2.86V74.09h2.86v-8.34h11.437v8.34h2.86V55.266h-2.86v7.863zm15.346 8.864c-2.12 0-3.955-.691-5.385-2.05-1.43-1.405-2.121-3.145-2.121-5.242 0-2.144.691-3.883 2.121-5.242 1.43-1.382 3.312-2.097 5.433-2.097 1.811 0 3.431.477 5.337 1.43V56.22c-1.667-.882-3.55-1.358-5.718-1.358-2.836 0-5.266.929-7.149 2.835-1.906 1.859-2.883 4.194-2.883 6.982 0 2.835.929 5.147 2.836 7.053 1.906 1.858 4.289 2.788 7.124 2.788 2.288 0 4.289-.548 6.053-1.597v-2.55c-1.692 1.097-3.551 1.62-5.648 1.62zm-62.764-39.436v14.607h2.86c.19 0 .476.024.81.024 2.954.143 4.765-1.859 5.623-4.122.667-1.502.977-3.884 1.12-5.576.072-.858.119-1.811.167-2.979l.119-3.55h7.101l1.43 16.203h2.787l-1.429-18.824H176.62l-.143 6.004c-.12 3.074-.31 5.1-.93 7.149-.572 2.025-1.692 3.098-3.359 3.098-.286 0-.477 0-.715-.024V28.34h-2.55l-11.985 14.678V28.34h-2.86v18.824h2.669l11.866-14.607z"/><path d="M163.823 28.912c1.168-1.049 1.906-2.312 2.145-3.622l-2.359-.286c-.143.81-.429 1.763-1.168 2.43-.762.691-1.739.858-2.549.93l.047 2.406c1.311-.143 2.645-.762 3.884-1.858z"/></g><defs><clipPath id="clip0"><path fill="#fff" transform="translate(115 20)" d="M0 0h122v54.09H0z"/></clipPath></defs></svg>