<svg width="246" height="32" fill="none" xmlns="http://www.w3.org/2000/svg"><path fill-rule="evenodd" clip-rule="evenodd" d="M156.4 28.2c-2.2-1.2-3.9-2.8-5.2-4.8-1.3-2.1-1.9-4.4-1.9-6.9s.6-4.9 1.9-6.9c1.3-2.1 3-3.7 5.2-4.8 2.2-1.2 4.7-1.7 7.5-1.7s5.3.6 7.5 1.7c2.2 1.2 3.9 2.8 5.2 4.8 1.3 2.1 1.9 4.4 1.9 6.9s-.6 4.9-1.9 6.9c-1.3 2.1-3 3.7-5.2 4.8-2.2 1.1-4.7 1.7-7.5 1.7s-5.3-.5-7.5-1.7zm10.4-6.1c.9-.5 1.6-1.3 2.1-2.2.5-1 .8-2.1.8-3.4 0-1.3-.3-2.4-.8-3.4s-1.2-1.7-2.1-2.2c-.9-.5-1.8-.8-2.9-.8-1.1 0-2.1.3-2.9.8-.8.5-1.6 1.3-2.1 2.2-.5.9-.8 2.1-.8 3.4 0 1.3.3 2.4.8 3.4s1.2 1.7 2.1 2.2c.9.5 1.8.8 2.9.8 1.1 0 2-.3 2.9-.8zm-106.3.3l4.5 6.9h9.9L65.4 16l9-12.5H65L60.7 10l-4.3-6.5h-9.8l9 12.8-9.3 13h9.9l4.3-6.9zm-27.3 6.9H2.3l9.4-13-9-12.7h30.7L42.6 16l-9.4 13.3zm200.5 0h-8.3l9.4-13-9-12.7h8.2l9.1 12.4-9.4 13.3zM101.3 4.7c1.8.8 3.1 1.9 4.1 3.4 1 1.5 1.4 3.2 1.4 5.2s-.5 3.7-1.4 5.2c-1 1.5-2.3 2.6-4.1 3.4-1.8.8-3.8 1.2-6.2 1.2h-3.7v6.3h-8.7V3.5h12.4c2.3 0 4.4.4 6.2 1.2zm-4.2 10.8c.6-.5.9-1.3.9-2.2 0-1-.3-1.7-.9-2.2-.6-.5-1.5-.8-2.7-.8h-3.2v6h3.2c1.3 0 2.1-.3 2.7-.8zm27.8 7.4h2.4l4.4 6.5h9.2l-5.4-8c1.6-.8 2.8-1.9 3.6-3.3.9-1.3 1.3-3 1.3-4.8 0-2-.4-3.7-1.4-5.2-1-1.5-2.3-2.6-4.1-3.4-1.7-.8-3.8-1.2-6.2-1.2h-12.5v25.9h8.7v-6.5zm3.2-12.7c1.2 0 2.1.3 2.7.8.6.6.9 1.3.9 2.2 0 .9-.3 1.7-.9 2.2-.6.5-1.5.8-2.7.8h-3.2v-6h3.2zm83.1 7.3l.1 11.8h8l-.1-25.8h-7.1l-8.2 13.7-8.4-13.7h-7.2v25.8h7.9V17.9l5.6 9h3.8l5.6-9.4z" fill="#EE2D2A"/></svg>