<svg width="168" height="34" fill="none" xmlns="http://www.w3.org/2000/svg"><g clip-path="url(#clip0)"><path fill="#fff" d="M19.125 6.375H153v20.542H19.125z"/><path d="M63.992 14.36h-1.338v2.605h1.337c.493 0 .845-.14 1.127-.352.281-.211.352-.563.352-.915 0-.423-.141-.704-.352-.915-.282-.282-.634-.423-1.126-.423z" fill="#EE2D2A"/><path d="M146.352 22.456h-3.52l4.013-5.491-3.802-5.42h3.45l3.871 5.279-4.012 5.631zm-5.35-8.096h-3.238v8.096h-3.731V14.36h-3.238v-2.886h10.137v2.886h.07zm-13.867 8.096h-9.152V11.543h8.94v2.816h-5.279v1.267h4.646v2.675h-4.646v1.408h5.491v2.745zm-14.009 0h-3.027l-4.153-4.998v4.998h-3.59V11.543h3.027l4.153 4.998v-4.998h3.59v10.912zm-18.372 0l-.704-1.901h-4.154l-.704 1.9h-3.73l4.786-10.98h3.66l4.788 10.98h-3.942zm-12.53 0h-8.659V11.543h3.731v8.096h4.927v2.816zM68.567 17.88c-.422.634-.985 1.126-1.76 1.408-.774.281-1.619.492-2.675.492h-1.478v2.675h-3.73v-10.91h5.279c.985 0 1.9.14 2.675.492a4.463 4.463 0 011.76 1.408c.422.634.633 1.338.633 2.182-.07.845-.281 1.62-.704 2.253zm-18.443 4.576l-1.9-2.957-1.83 2.957H42.17l3.942-5.562-3.802-5.42h4.154l1.9 2.745 1.83-2.745h4.013l-3.801 5.28 4.012 5.701h-4.294zm-13.515 0H23.515l4.013-5.491-3.801-5.42h13.022l3.872 5.279-4.012 5.631zM154.658 0H1.271l11.826 16.824L.708 34h153.528l12.46-17.598L154.658 0z" fill="#EE2D2A"/><path d="M90.811 17.88h2.183l-1.056-2.745-1.127 2.745z" fill="#EE2D2A"/></g><defs><clipPath id="clip0"><path fill="#fff" d="M0 0h167.167v34H0z"/></clipPath></defs></svg>